<svg width="33" height="32" viewBox="0 0 33 32" fill="none" xmlns="http://www.w3.org/2000/svg">
<mask id="mask0_4003_797" style="mask-type:alpha" maskUnits="userSpaceOnUse" x="0" y="0" width="33" height="32">
<rect x="0.400024" width="32" height="32" fill="#D9D9D9"/>
</mask>
<g mask="url(#mask0_4003_797)">
<path d="M7.06669 29.3334C6.33336 29.3334 5.70558 29.0723 5.18336 28.55C4.66114 28.0278 4.40002 27.4 4.40002 26.6667V10.6667C4.40002 9.93337 4.66114 9.3056 5.18336 8.78337C5.70558 8.26115 6.33336 8.00004 7.06669 8.00004H9.73336C9.73336 6.1556 10.3834 4.58337 11.6834 3.28337C12.9834 1.98337 14.5556 1.33337 16.4 1.33337C18.2445 1.33337 19.8167 1.98337 21.1167 3.28337C22.4167 4.58337 23.0667 6.1556 23.0667 8.00004H25.7334C26.4667 8.00004 27.0945 8.26115 27.6167 8.78337C28.1389 9.3056 28.4 9.93337 28.4 10.6667V26.6667C28.4 27.4 28.1389 28.0278 27.6167 28.55C27.0945 29.0723 26.4667 29.3334 25.7334 29.3334H7.06669ZM7.06669 26.6667H25.7334V10.6667H7.06669V26.6667ZM16.4 18.6667C18.2445 18.6667 19.8167 18.0167 21.1167 16.7167C22.4167 15.4167 23.0667 13.8445 23.0667 12H20.4C20.4 13.1112 20.0111 14.0556 19.2334 14.8334C18.4556 15.6112 17.5111 16 16.4 16C15.2889 16 14.3445 15.6112 13.5667 14.8334C12.7889 14.0556 12.4 13.1112 12.4 12H9.73336C9.73336 13.8445 10.3834 15.4167 11.6834 16.7167C12.9834 18.0167 14.5556 18.6667 16.4 18.6667ZM12.4 8.00004H20.4C20.4 6.88893 20.0111 5.94449 19.2334 5.16671C18.4556 4.38893 17.5111 4.00004 16.4 4.00004C15.2889 4.00004 14.3445 4.38893 13.5667 5.16671C12.7889 5.94449 12.4 6.88893 12.4 8.00004Z" fill="#023586"/>
</g>
</svg>
