<svg width="33" height="32" viewBox="0 0 33 32" fill="none" xmlns="http://www.w3.org/2000/svg">
<mask id="mask0_4003_791" style="mask-type:alpha" maskUnits="userSpaceOnUse" x="0" y="0" width="33" height="32">
<rect x="0.100006" width="32" height="32" fill="#D9D9D9"/>
</mask>
<g mask="url(#mask0_4003_791)">
<path d="M26.9 22.6C27.2778 22.8 27.6111 22.7555 27.9 22.4666C28.1889 22.1777 28.2334 21.8444 28.0334 21.4666L26.1 17.8666L24.7 21.4666L26.9 22.6ZM20.2334 21.3333H21.8334L25.0334 13.4C25.1 13.2222 25.0834 13.0722 24.9834 12.95C24.8834 12.8277 24.7667 12.7333 24.6334 12.6666L21.9667 11.6C21.7667 11.5333 21.5722 11.5555 21.3834 11.6666C21.1945 11.7777 21.0778 11.9333 21.0333 12.1333L20.2334 21.3333ZM10.3667 21.3333H11.9667L11.1667 12.1333C11.1222 11.8888 11.0056 11.7222 10.8167 11.6333C10.6278 11.5444 10.4333 11.5333 10.2333 11.6L7.56668 12.6666C7.38891 12.7333 7.26113 12.8277 7.18335 12.95C7.10557 13.0722 7.10002 13.2222 7.16668 13.4L10.3667 21.3333ZM5.30002 22.6L7.50002 21.4666L6.10002 17.8666L4.16668 21.4666C3.96668 21.8444 4.01113 22.1777 4.30002 22.4666C4.58891 22.7555 4.92224 22.8 5.30002 22.6ZM14.6334 21.3333H17.5667L18.5667 10.0666C18.6111 9.86663 18.5611 9.6944 18.4167 9.54996C18.2722 9.40551 18.1 9.33329 17.9 9.33329H14.3C14.1222 9.33329 13.9611 9.40551 13.8167 9.54996C13.6722 9.6944 13.6111 9.86663 13.6334 10.0666L14.6334 21.3333ZM4.70002 25.3333C3.76668 25.3333 2.98891 24.9833 2.36668 24.2833C1.74446 23.5833 1.43335 22.7555 1.43335 21.8C1.43335 21.5333 1.47224 21.2722 1.55002 21.0166C1.62779 20.7611 1.72224 20.5111 1.83335 20.2666L4.76668 14.6666C4.45557 13.7777 4.46668 12.9 4.80002 12.0333C5.13335 11.1666 5.72224 10.5555 6.56668 10.2L9.23335 9.13329C9.54446 9.02218 9.85557 8.9444 10.1667 8.89996C10.4778 8.85551 10.7889 8.86663 11.1 8.93329C11.4111 8.28885 11.8445 7.74996 12.4 7.31663C12.9556 6.88329 13.5889 6.66663 14.3 6.66663H17.9C18.6111 6.66663 19.2445 6.88329 19.8 7.31663C20.3556 7.74996 20.7889 8.28885 21.1 8.93329C21.4111 8.88885 21.7222 8.88329 22.0333 8.91663C22.3445 8.94996 22.6556 9.02218 22.9667 9.13329L25.6334 10.2C26.5222 10.5555 27.1445 11.1666 27.5 12.0333C27.8556 12.9 27.8334 13.7555 27.4333 14.6L30.3667 20.2C30.5 20.4444 30.6 20.7 30.6667 20.9666C30.7334 21.2333 30.7667 21.5111 30.7667 21.8C30.7667 22.8 30.4278 23.6388 29.75 24.3166C29.0722 24.9944 28.2334 25.3333 27.2334 25.3333C26.9889 25.3333 26.7445 25.3055 26.5 25.25C26.2556 25.1944 26.0111 25.1111 25.7667 25L23.7 24H8.43335L6.56668 25C6.27779 25.1555 5.97224 25.25 5.65002 25.2833C5.32779 25.3166 5.01113 25.3333 4.70002 25.3333Z" fill="#023586"/>
</g>
</svg>
