<svg width="33" height="32" viewBox="0 0 33 32" fill="none" xmlns="http://www.w3.org/2000/svg">
<mask id="mask0_4003_821" style="mask-type:alpha" maskUnits="userSpaceOnUse" x="0" y="0" width="33" height="32">
<rect x="0.5" width="32" height="32" fill="#D9D9D9"/>
</mask>
<g mask="url(#mask0_4003_821)">
<path d="M12.6 21.6666L16.5 19.2999L20.4 21.6666L19.3667 17.2332L22.8333 14.2332L18.2667 13.8666L16.5 9.66656L14.7333 13.8666L10.1667 14.2332L13.6333 17.2332L12.6 21.6666ZM16.5 31.0666L12.0333 26.6666H5.83335V20.4666L1.43335 15.9999L5.83335 11.5332V5.33323H12.0333L16.5 0.933228L20.9667 5.33323H27.1667V11.5332L31.5667 15.9999L27.1667 20.4666V26.6666H20.9667L16.5 31.0666ZM16.5 27.3332L19.8333 23.9999H24.5V19.3332L27.8333 15.9999L24.5 12.6666V7.99989H19.8333L16.5 4.66656L13.1667 7.99989H8.50002V12.6666L5.16668 15.9999L8.50002 19.3332V23.9999H13.1667L16.5 27.3332Z" fill="#023586"/>
</g>
</svg>
