<svg width="33" height="32" viewBox="0 0 33 32" fill="none" xmlns="http://www.w3.org/2000/svg">
<mask id="mask0_4003_809" style="mask-type:alpha" maskUnits="userSpaceOnUse" x="0" y="0" width="33" height="32">
<rect x="0.200012" width="32" height="32" fill="#D9D9D9"/>
</mask>
<g mask="url(#mask0_4003_809)">
<path d="M14.8667 25.9V16.7666L6.86668 12.1333V21.2666L14.8667 25.9ZM17.5333 25.9L25.5333 21.2666V12.1333L17.5333 16.7666V25.9ZM14.8667 28.9666L5.53335 23.6C5.11112 23.3555 4.78335 23.0333 4.55001 22.6333C4.31668 22.2333 4.20001 21.7888 4.20001 21.3V10.7C4.20001 10.2111 4.31668 9.76663 4.55001 9.36663C4.78335 8.96663 5.11112 8.6444 5.53335 8.39996L14.8667 3.03329C15.2889 2.78885 15.7333 2.66663 16.2 2.66663C16.6667 2.66663 17.1111 2.78885 17.5333 3.03329L26.8667 8.39996C27.2889 8.6444 27.6167 8.96663 27.85 9.36663C28.0833 9.76663 28.2 10.2111 28.2 10.7V21.3C28.2 21.7888 28.0833 22.2333 27.85 22.6333C27.6167 23.0333 27.2889 23.3555 26.8667 23.6L17.5333 28.9666C17.1111 29.2111 16.6667 29.3333 16.2 29.3333C15.7333 29.3333 15.2889 29.2111 14.8667 28.9666ZM21.5333 11.3666L24.1 9.89996L16.2 5.33329L13.6 6.83329L21.5333 11.3666ZM16.2 14.4666L18.8 12.9666L10.9 8.39996L8.30001 9.89996L16.2 14.4666Z" fill="#023586"/>
</g>
</svg>
