<svg width="33" height="32" viewBox="0 0 33 32" fill="none" xmlns="http://www.w3.org/2000/svg">
<mask id="mask0_4003_785" style="mask-type:alpha" maskUnits="userSpaceOnUse" x="0" y="0" width="33" height="32">
<rect x="0.799988" width="32" height="32" fill="#D9D9D9"/>
</mask>
<g mask="url(#mask0_4003_785)">
<path d="M10.8 29.3333C9.51111 29.3333 8.41111 28.8777 7.5 27.9666C6.58889 27.0555 6.13333 25.9555 6.13333 24.6666V7.33329C6.13333 6.0444 6.58889 4.9444 7.5 4.03329C8.41111 3.12218 9.51111 2.66663 10.8 2.66663H27.4667V22.6666C26.9111 22.6666 26.4389 22.8611 26.05 23.25C25.6611 23.6388 25.4667 24.1111 25.4667 24.6666C25.4667 25.2222 25.6611 25.6944 26.05 26.0833C26.4389 26.4722 26.9111 26.6666 27.4667 26.6666V29.3333H10.8ZM8.8 20.4333C9.11111 20.2777 9.43333 20.1666 9.76666 20.1C10.1 20.0333 10.4444 20 10.8 20H11.4667V5.33329H10.8C10.2444 5.33329 9.77222 5.52774 9.38333 5.91663C8.99444 6.30551 8.8 6.77774 8.8 7.33329V20.4333ZM14.1333 20H24.8V5.33329H14.1333V20ZM10.8 26.6666H23.2333C23.1 26.3555 22.9944 26.0388 22.9167 25.7166C22.8389 25.3944 22.8 25.0444 22.8 24.6666C22.8 24.3111 22.8333 23.9666 22.9 23.6333C22.9667 23.3 23.0778 22.9777 23.2333 22.6666H10.8C10.2222 22.6666 9.74444 22.8611 9.36666 23.25C8.98889 23.6388 8.8 24.1111 8.8 24.6666C8.8 25.2444 8.98889 25.7222 9.36666 26.1C9.74444 26.4777 10.2222 26.6666 10.8 26.6666Z" fill="#023586"/>
</g>
</svg>
