<svg width="32" height="32" viewBox="0 0 32 32" fill="none" xmlns="http://www.w3.org/2000/svg">
<mask id="mask0_4003_779" style="mask-type:alpha" maskUnits="userSpaceOnUse" x="0" y="0" width="32" height="32">
<rect width="32" height="32" fill="#D9D9D9"/>
</mask>
<g mask="url(#mask0_4003_779)">
<path d="M5.33332 28C4.59999 28 3.97221 27.7389 3.44999 27.2167C2.92777 26.6944 2.66666 26.0667 2.66666 25.3333V6.66667C2.66666 5.93333 2.92777 5.30556 3.44999 4.78333C3.97221 4.26111 4.59999 4 5.33332 4H26.6667C27.4 4 28.0278 4.26111 28.55 4.78333C29.0722 5.30556 29.3333 5.93333 29.3333 6.66667V25.3333C29.3333 26.0667 29.0722 26.6944 28.55 27.2167C28.0278 27.7389 27.4 28 26.6667 28H5.33332ZM5.33332 25.3333H26.6667V6.66667H5.33332V25.3333ZM7.99999 22.6667H24V20H7.99999V22.6667ZM7.99999 17.3333H13.3333V9.33333H7.99999V17.3333ZM16 17.3333H24V14.6667H16V17.3333ZM16 12H24V9.33333H16V12Z" fill="#023586"/>
</g>
</svg>
